<?xml version="1.0" encoding="utf-8"?>
<!-- Generator: Adobe Illustrator 27.4.1, SVG Export Plug-In . SVG Version: 6.00 Build 0)  -->
<svg version="1.1" id="Layer_1" xmlns="http://www.w3.org/2000/svg" xmlns:xlink="http://www.w3.org/1999/xlink" x="0px" y="0px"
	 viewBox="0 0 475 469.2" style="enable-background:new 0 0 475 469.2;" xml:space="preserve">
<style type="text/css">
	.st0{fill:#6390B1;}
	.st1{fill:#002F5F;}
</style>
<g>
	<g>
		<polygon class="st0" points="197.7,110.1 38.5,253.9 116.2,253.9 197.7,162.5 		"/>
		<polygon class="st0" points="197.7,56.8 0.6,56.8 0.6,253.9 37.3,253.9 197.7,58.9 		"/>
		<polygon class="st0" points="197.7,204.7 139.8,253.9 197.7,253.9 		"/>
		<polygon class="st0" points="197.1,365.6 197.1,288.7 75.3,396.1 185.8,272.1 118.4,272.1 42.4,336.8 100,272.1 0,272.1 0,469.2 
			197.1,469.2 197.1,380.7 137.8,432.2 		"/>
		<polygon class="st0" points="322.4,272.1 217.7,362.8 217.7,443.8 370.7,272.1 		"/>
		<polygon class="st0" points="217.7,342.4 280.4,272.1 217.7,272.1 		"/>
		<polygon class="st0" points="217.7,469.2 414.8,469.2 414.8,276.1 217.7,444.1 		"/>
		<rect x="242.1" class="st1" width="232.9" height="232.9"/>
	</g>
	<g>
		<path class="st1" d="M463.8,272c6.2,0,11.2,5,11.2,11.2s-5,11.2-11.2,11.2s-11.2-5-11.2-11.2C452.5,277,457.6,272,463.8,272z
			 M463.8,293.3c5.6,0,9.9-4.5,9.9-10.1s-4.4-10.1-9.9-10.1c-5.6,0-9.9,4.5-9.9,10.1C453.9,288.8,458.2,293.3,463.8,293.3z
			 M459.6,280.3c0-1.4-0.1-3.1-0.2-4.2c0.8,0.1,1.7,0.2,2.6,0.2c0.8,0,1.7-0.2,2.5-0.2c2.2,0,4,1,4,3.1c0,2.6-2.7,3.8-4.3,3.9
			c1.6,2,4.3,5.7,5.6,6.8v0.2c-0.4-0.1-0.8-0.2-1.2-0.2s-0.8,0.1-1.2,0.2c-1.5-2.2-3.2-4.5-5.1-6.7h-1v2.2c0,1.5,0.1,3,0.2,4.5
			c-0.3-0.1-0.7-0.2-1-0.2s-0.7,0.1-1,0.2c0.1-1.5,0.2-2.9,0.2-4.4L459.6,280.3L459.6,280.3z M461.2,282.5c0.2,0.1,0.7,0.1,1.3,0.1
			c2.1,0,4-0.9,4-3.2c0-1.6-1.2-2.6-2.9-2.6c-0.8,0-1.5,0.1-2.2,0.2c-0.1,1-0.2,2-0.2,2.9L461.2,282.5L461.2,282.5z"/>
	</g>
</g>
</svg>
